<svg fill="none" xmlns="http://www.w3.org/2000/svg" viewBox="0 0 51 26" class="manifesto--icon"><path d="M47.204 22.19A12.832 12.832 0 0138.05 26c-2.23 0-4.379-.564-6.275-1.625A12.842 12.842 0 0125.495 26c-2.234 0-4.379-.564-6.275-1.625A12.841 12.841 0 0112.94 26a12.822 12.822 0 01-9.148-3.81A12.94 12.94 0 010 13c0-3.473 1.347-6.74 3.792-9.19A12.83 12.83 0 0112.94 0c2.235 0 4.38.564 6.28 1.624A12.842 12.842 0 0125.5 0c2.235 0 4.38.564 6.28 1.624A12.841 12.841 0 0138.06 0c3.456 0 6.708 1.353 9.148 3.81A12.947 12.947 0 0151 13a12.98 12.98 0 01-3.796 9.19zm-23.33 2.595c-.399-.664-.755-1.594-1.055-2.766-.038-.156-.081-.32-.116-.479-.197.224-.398.444-.609.655-.128.13-.257.25-.386.37.648 1.03 1.386 1.785 2.166 2.22zM22.497 5.429a12.49 12.49 0 00-1.192-1.305c-.026.047-.047.09-.073.138-1.2 2.326-1.866 5.433-1.866 8.738 0 3.305.665 6.412 1.87 8.738l.073.138c.082-.077.159-.155.24-.232.34-.34.657-.703.953-1.073-.416-2.18-.644-4.809-.644-7.571-.004-2.758.223-5.386.64-7.57zM22.19 24.44a8.627 8.627 0 01-1.073-1.361c-.158.129-.317.254-.48.374.493.388 1.008.72 1.553.987zM12.94.776a12.058 12.058 0 00-8.604 3.58A12.169 12.169 0 00.772 13c0 3.266 1.265 6.334 3.564 8.644 2.3 2.31 5.354 3.58 8.605 3.58 1.947 0 3.822-.456 5.507-1.318a13.034 13.034 0 01-2.101-1.715A12.948 12.948 0 0112.555 13c0-3.473 1.347-6.74 3.792-9.19a13.038 13.038 0 012.101-1.716A12.06 12.06 0 0012.941.776zm6.28 1.745a12.29 12.29 0 00-2.33 1.835A12.17 12.17 0 0013.327 13a12.17 12.17 0 003.564 8.644 12.193 12.193 0 002.33 1.835c.05-.03.107-.064.158-.099-.382-.37-.746-.78-1.094-1.224-1.895-2.451-2.942-5.7-2.942-9.156 0-3.456 1.047-6.705 2.942-9.156.343-.444.708-.854 1.094-1.224-.056-.035-.107-.065-.159-.1zM16.114 13c0 4.09 1.548 7.713 3.92 9.936.232-.168.46-.344.678-.53-.056-.103-.111-.202-.167-.31-1.257-2.434-1.952-5.666-1.952-9.096 0-3.43.695-6.662 1.952-9.096l.167-.31a13.073 13.073 0 00-.678-.53c-2.372 2.223-3.92 5.847-3.92 9.936zm4.52-10.453c.164.12.323.245.481.374A8.624 8.624 0 0122.19 1.56a8.742 8.742 0 00-1.553.987zm1.069.887a12.464 12.464 0 01.995 1.026c.039-.164.077-.323.116-.479.304-1.172.656-2.102 1.055-2.766-.776.435-1.514 1.185-2.166 2.22zM25.11.926c-.468.345-1.043 1.319-1.544 3.254-.086.336-.168.69-.245 1.055a12.807 12.807 0 011.784 3.323V.926h.005zm-1.982 5.378c-.326 1.982-.502 4.283-.502 6.696 0 2.413.176 4.714.502 6.696A12.173 12.173 0 0025.11 13c0-2.417-.69-4.723-1.982-6.696zm1.982 11.138a12.938 12.938 0 01-1.785 3.323c.078.366.159.72.245 1.055.497 1.935 1.072 2.909 1.544 3.254v-7.632h-.004zm6.665 6.037a12.31 12.31 0 002.158-1.667 9.238 9.238 0 01-.708-.37c-.163.245-.334.486-.515.719a11.13 11.13 0 01-1.093 1.223c.051.03.102.06.158.095zM29.013 9.493a9.742 9.742 0 011.707-2.849 14.74 14.74 0 00-.96-2.382l-.074-.138c-.081.077-.158.155-.24.232-.339.34-.656.703-.952 1.073.236 1.233.412 2.603.519 4.064zm-.52 11.078c.297.375.614.732.953 1.073.077.077.159.155.24.232.026-.047.048-.09.073-.138.373-.723.695-1.525.961-2.382a9.615 9.615 0 01-1.707-2.849 35.822 35.822 0 01-.52 4.064zM29.138 13c0 2.047.687 3.93 1.84 5.442.42-1.672.644-3.52.644-5.442 0-1.918-.223-3.77-.643-5.442A8.936 8.936 0 0029.137 13zm3.106 2.762a21.327 21.327 0 01-.657 3.395c.425.449.893.854 1.399 1.207a13.37 13.37 0 001.06-2.314 6.505 6.505 0 01-1.802-2.288zm2.054 1.482c.378-1.323.584-2.753.584-4.244 0-1.49-.206-2.921-.584-4.244a5.678 5.678 0 00-1.9 4.244c0 1.685.734 3.201 1.9 4.244zm-2.054-7.006a6.5 6.5 0 011.801-2.284 13.227 13.227 0 00-1.06-2.314 9.119 9.119 0 00-1.398 1.207c.3 1.06.52 2.202.657 3.391zm2.458-2.75a6.352 6.352 0 011.33-.62 12.115 12.115 0 00-1.523-2.085c-.3.13-.588.276-.871.44.416.71.772 1.469 1.064 2.266zm3.35 2.323A3.182 3.182 0 0141.224 13a3.185 3.185 0 01-3.175 3.189h-.004c-.21.84-.502 1.65-.87 2.425.287.044.579.07.874.07 3.119 0 5.658-2.551 5.658-5.684s-2.54-5.683-5.657-5.683c-.296 0-.592.021-.876.068.374.776.665 1.59.876 2.426zm-.605.854a2.412 2.412 0 000 4.662 12.41 12.41 0 00.218-2.331c0-.789-.072-1.569-.218-2.331zm.772 4.74A2.41 2.41 0 0040.453 13a2.41 2.41 0 00-2.235-2.404c.146.784.219 1.59.219 2.404 0 .814-.073 1.62-.22 2.404zm-.944.685a3.19 3.19 0 01-1.737-1.147c-.111.97-.309 1.91-.583 2.81.441.293.93.525 1.45.685.368-.75.66-1.538.87-2.348zm-1.733-5.033A3.19 3.19 0 0137.28 9.91c-.21-.81-.502-1.6-.871-2.345a5.67 5.67 0 00-1.45.686c.275.896.468 1.835.583 2.805zm1.261-4.391c.404-.082.824-.12 1.248-.12 3.544 0 6.43 2.895 6.43 6.458 0 3.56-2.882 6.46-6.43 6.46a6.59 6.59 0 01-1.248-.121c-.429.767-.939 1.5-1.522 2.176.87.288 1.805.444 2.77.444 4.916 0 8.914-4.016 8.914-8.954 0-4.938-3.998-8.954-8.913-8.954-.966 0-1.9.155-2.771.444a12.39 12.39 0 011.522 2.167zm-.772 12.466a6.453 6.453 0 01-1.33-.62 14.029 14.029 0 01-1.063 2.266c.279.159.57.306.87.44a12.282 12.282 0 001.523-2.086zm-3.461 1.891a10.022 10.022 0 01-1.244-1.025c-.253.75-.545 1.452-.88 2.098-.055.104-.11.207-.167.31.223.186.446.362.678.53a10.762 10.762 0 001.613-1.913zm-2.214 2.43c-.163-.12-.321-.245-.48-.374a8.627 8.627 0 01-1.072 1.361 8.593 8.593 0 001.552-.987zm-1.067-.887a12.561 12.561 0 01-.995-1.026l-.116.479c-.305 1.172-.657 2.102-1.056 2.766.781-.435 1.519-1.19 2.167-2.22zm-3.406 2.508c.467-.345 1.042-1.319 1.544-3.254.086-.336.167-.69.244-1.055a12.949 12.949 0 01-1.788-3.323v7.632zm1.986-5.378c.326-1.982.502-4.283.502-6.696 0-2.413-.176-4.714-.502-6.696A12.173 12.173 0 0025.886 13c0 2.417.69 4.723 1.982 6.696zM25.882.926v7.632a12.818 12.818 0 011.788-3.323c-.077-.366-.158-.72-.244-1.055-.502-1.935-1.072-2.909-1.544-3.254zm1.235.29c.399.663.755 1.593 1.055 2.765.039.156.082.32.116.479.197-.224.399-.444.61-.655.128-.13.256-.25.385-.37-.643-1.035-1.381-1.785-2.166-2.22zm1.69.344c.378.388.738.84 1.072 1.361.16-.129.318-.254.48-.374a8.9 8.9 0 00-1.552-.987zm2.149 1.504c-.232.168-.459.344-.678.53.056.103.112.202.168.31.334.646.626 1.353.879 2.098.39-.379.806-.72 1.244-1.025a10.76 10.76 0 00-1.613-1.913zm.82-.543c-.052.03-.108.064-.16.099.382.37.747.78 1.094 1.224.18.232.352.47.515.72.232-.134.468-.26.708-.371a12.286 12.286 0 00-2.158-1.672zm14.883 1.835a12.058 12.058 0 00-8.604-3.58 12.06 12.06 0 00-5.508 1.318c.751.491 1.454 1.064 2.102 1.715a.77.77 0 01.056.06 9.618 9.618 0 013.346-.594 9.615 9.615 0 016.85 2.848 9.69 9.69 0 012.835 6.881 9.704 9.704 0 01-2.835 6.882 9.6 9.6 0 01-6.85 2.848 9.583 9.583 0 01-3.346-.595.77.77 0 00-.056.06 13.034 13.034 0 01-2.102 1.715 12.06 12.06 0 005.508 1.319c3.251 0 6.305-1.271 8.604-3.58a12.169 12.169 0 003.565-8.644c0-3.267-1.27-6.343-3.565-8.653z" fill="#F9EBBB" stroke-width="5"></path></svg>